<svg xmlns="http://www.w3.org/2000/svg" viewBox="0 0 233.87 82.77"><title>Asset 2</title><g id="Layer_2" data-name="Layer 2"><g id="Layer_1-2" data-name="Layer 1"><path d="M72.89,37.55a15.53,15.53,0,0,1,4.27.65c0-3.41-.59-4.76-3.35-4.76a23.16,23.16,0,0,0-6.06,1c-.65.17-1-.27-1.19-.86l-.43-2a1,1,0,0,1,.7-1.25,22.41,22.41,0,0,1,7.46-1.24c6.93,0,7.58,4.22,7.58,9.63V50.21a1.07,1.07,0,0,1-1,1H79.32c-.48,0-.7-.22-.91-.76L77.86,49a9.32,9.32,0,0,1-6.65,2.76c-4.06,0-7-2.76-7-7.25C64.23,40.58,67.37,37.55,72.89,37.55Zm-.65,10.39a6.39,6.39,0,0,0,4.87-2.71V41.77a8.15,8.15,0,0,0-3.79-.86c-2.6,0-4.38,1.35-4.38,3.57A3.26,3.26,0,0,0,72.24,47.94Z" fill="#becad3"/><path d="M98.42,29.06a9.57,9.57,0,0,1,7.84,3.84,1.06,1.06,0,0,1-.21,1.51L104.26,36c-.65.59-1,.16-1.46-.22a6,6,0,0,0-4.33-2,6.43,6.43,0,0,0-6.27,6.65,6.41,6.41,0,0,0,6.22,6.71c2.76,0,3.89-1.41,5-2.49a1,1,0,0,1,1.46-.11l1.46,1.19c.54.43.76,1,.38,1.51a9.6,9.6,0,0,1-8.39,4.55,11.27,11.27,0,0,1-11.3-11.31A11.51,11.51,0,0,1,98.42,29.06Z" fill="#becad3"/><path d="M112.16,30.63a1.07,1.07,0,0,1,1-1h1.51a.94.94,0,0,1,.92.65l.6,1.84a10,10,0,0,1,7.14-3,8,8,0,0,1,7,3.46c.6-.59,3.74-3.46,7.85-3.46,6.6,0,8.92,4.65,8.92,10.28V50.21a1,1,0,0,1-1,1h-3a1,1,0,0,1-1-1V39.12c0-3.41-1.57-5.35-4.49-5.35A7.76,7.76,0,0,0,132,36.42a14.87,14.87,0,0,1,.16,2.59v11.2a1.07,1.07,0,0,1-1,1h-2.87a1,1,0,0,1-1-1V39.12c0-3.46-1.57-5.35-4.6-5.35A6.15,6.15,0,0,0,117.24,37v13.2a1.06,1.06,0,0,1-1,1h-3a1.07,1.07,0,0,1-1-1Z" fill="#becad3"/><path d="M163.11,29.06a9.75,9.75,0,0,1,10,10,14.34,14.34,0,0,1-.11,1.46,1,1,0,0,1-1,.92H157.27a6.26,6.26,0,0,0,6.22,5.78,9.26,9.26,0,0,0,4.82-1.56c.65-.38,1-.6,1.46-.06l1.51,2.06a.83.83,0,0,1-.11,1.4,12.36,12.36,0,0,1-8,2.71c-6.55,0-10.87-5.14-10.87-11.36S156.62,29.06,163.11,29.06ZM168,38a5.12,5.12,0,0,0-5-4.82A5.48,5.48,0,0,0,157.54,38Z" fill="#becad3"/><path d="M199.9,29.06a9.57,9.57,0,0,1,7.84,3.84,1,1,0,0,1-.22,1.51L205.74,36c-.65.59-1,.16-1.46-.22a6,6,0,0,0-4.33-2,6.43,6.43,0,0,0-6.27,6.65,6.41,6.41,0,0,0,6.22,6.71c2.76,0,3.89-1.41,5-2.49a1,1,0,0,1,1.46-.11l1.46,1.19c.54.43.76,1,.38,1.51a9.6,9.6,0,0,1-8.39,4.55,11.26,11.26,0,0,1-11.3-11.31A11.51,11.51,0,0,1,199.9,29.06Z" fill="#becad3"/><path d="M222.94,29.06A11.37,11.37,0,1,1,212,40.36,11.19,11.19,0,0,1,222.94,29.06Zm0,18.07c3.41,0,6.11-3,6.11-6.77a6.13,6.13,0,1,0-12.22,0C216.83,44.1,219.53,47.13,222.94,47.13Z" fill="#becad3"/><path d="M33.58,52.12s5-35.85-11.52-49.27L21.17.4A.6.6,0,0,0,20,.38l-1,2.43c-16.22,13-10.52,49-10.52,49C-4,61.68-.93,58,6.22,75.36c1.36,3.32,3.75,2.54,4.83.15l3.47-7.68h1.13l4.38,14a1.35,1.35,0,0,0,2.57,0l4.38-14h1s2.6,5.5,3.73,7.91,3.54,3.26,4.83,0C43.33,58.5,46.34,62.26,33.58,52.12ZM20.86,40.42a5.83,5.83,0,0,1-5.74-5.75,5.52,5.52,0,0,1,5.61-5.61,5.83,5.83,0,0,1,5.74,5.75A5.52,5.52,0,0,1,20.86,40.42Z" fill="#fff"/></g></g></svg>